<svg id="Capa_1" enable-background="new 0 0 512.38 512.38" height="512" viewBox="0 0 512.38 512.38" width="512" xmlns="http://www.w3.org/2000/svg"><g><path d="m502.198 0c-49.626 0-90 40.374-90 90v16.03c-6.6 7.343-11.661 15.736-15.045 24.782l-5.098-5.098c-2.225-36.609-32.7-65.714-69.857-65.714h-20c-5.522 0-10 4.477-10 10 0 38.598 31.402 70 70 70h15.858c2.413 3.167 14.142 10.407 14.142 26.57v165.43h-58.178c-11.594-49.758-40.916-110.208-84.316-147.235 6.417-5.506 10.494-13.666 10.494-22.765 0-16.542-13.458-30-30-30h-4.47l53.573-117.862c1.925-4.233.666-9.226-3.021-12.059-3.688-2.834-8.852-2.743-12.446.207-.241.198-24.436 19.762-52.927 17.739-14.903-1.061-26.246-5.24-38.254-9.665-13.823-5.093-28.116-10.36-47.311-10.36-.052 0-.104 0-.156 0-33.917.044-60.236 21.369-61.339 22.276-3.685 3.03-4.716 8.241-2.463 12.446l52.113 97.278h-3.299c-16.542 0-30 13.458-30 30 0 9.108 4.085 17.275 10.513 22.781-23.516 20.133-44.92 48.865-61.344 82.667-18.537 38.152-29.169 79.904-29.169 114.552 0 15.289 2.058 29.543 6.115 42.363 3.422 10.829 2.672 22.745-2.167 34.458-6.942 16.801-4.692 32.667 6.167 43.525 11.335 11.349 28.515 12.377 43.505 6.366 16.901-6.772 31.962-8.309 46.043-4.697 20.63 5.298 44.295 7.984 70.337 7.984s49.707-2.686 70.335-7.984c13.988-3.589 29.708-1.984 46.737 4.773 3.793 1.5 7.637 2.544 11.428 3.103.038.006.075.006.113.011 4.22.619 8.114.619 11.87.097h151.517c4.589 0 8.589-3.123 9.701-7.575l40-160c.747-2.987.076-6.152-1.819-8.58-1.895-2.427-4.803-3.846-7.882-3.846h-90v-85.43c0-16.251 11.754-23.436 14.142-26.57h15.858c38.598 0 70-31.402 70-70 0-5.523-4.478-10-10-10h-20c-37.157 0-67.632 29.105-69.856 65.714l-.144.144v-47.576c0-14.275 5.113-27.759 14.45-38.39 47.567-2.328 85.55-41.756 85.55-89.889v-20.001c0-5.523-4.477-10-10-10zm-140 120c-24.146 0-44.35-17.206-48.995-40h8.995c24.146 0 44.35 17.206 48.995 40zm-132 32c5.514 0 10 4.486 10 10s-4.486 10-10 10c-10.201 0-14.825 0-31.72 0 1.11-3.13 1.72-6.494 1.72-10s-.61-6.87-1.72-10zm-146.974-118.862c8.486-5.249 24.17-13.115 41.989-13.138h.124c15.631 0 27.666 4.434 40.402 9.127 12.789 4.712 26.015 9.585 43.75 10.848 14.613 1.042 28.053-2.135 39.005-6.391l-44.735 98.416h-67.573zm96.974 128.862c0 5.513-4.485 9.999-9.998 10-.002 0-.003 0-.005 0-5.512-.001-9.998-4.487-9.998-10 0-5.514 4.486-10 10-10s10.001 4.486 10.001 10zm-70-10.01h31.72c-1.11 3.13-1.72 6.504-1.72 10.01s.61 6.87 1.72 10c-16.609 0-21.752 0-31.72 0-5.514 0-10-4.486-10-10s4.487-10.01 10-10.01zm206.199 336.228c-1.93 1.936-4.391 3.198-7.344 3.782h-8.032c-2.088-.355-4.234-.954-6.385-1.805-21.033-8.346-40.907-10.214-59.076-5.551-19.006 4.881-40.997 7.355-65.362 7.355s-46.356-2.475-65.365-7.356c-18.091-4.641-37.758-2.789-58.456 5.505-6.898 2.766-16.275 3.708-21.918-1.94-6.325-6.325-4.485-15.319-1.828-21.75 6.657-16.114 7.608-32.754 2.752-48.125-3.44-10.87-5.185-23.094-5.185-36.333 0-60.038 37.524-149.856 93.661-190h32.197l-22.929 22.929c-3.905 3.905-3.905 10.237 0 14.143 3.906 3.905 10.236 3.905 14.143 0l32.929-32.929 32.929 32.929c3.906 3.905 10.236 3.905 14.143 0 3.905-3.905 3.905-10.237 0-14.143l-22.93-22.929h32.165c41.543 29.718 77.386 90.289 89.655 151.958 2.679 13.42 4.037 26.22 4.037 38.042 0 13.208-1.731 25.398-5.148 36.237-4.727 15.013-3.596 31.702 3.271 48.26 2.645 6.387 4.46 15.338-1.924 21.721zm137.994 3.782h-116.702c4.292-9.6 4.084-21.146-.893-33.16-3.517-8.481-6.834-21.368-2.671-34.593 3.135-9.942 5.051-20.759 5.755-32.247h139.511zm35-140-5 20h-144.47c-.352-6.479-1.05-13.163-2.069-20zm-7.193-192.01h8.995c-4.646 22.794-24.85 40.01-48.995 40.01h-8.995c4.646-22.794 24.85-40.01 48.995-40.01zm10-129.99c0 35.203-26.122 64.421-60 69.288v-9.288c0-35.203 26.122-64.421 60-69.288z"/><path d="m230.198 252h-120c-27.57 0-50 22.43-50 50v100c0 27.57 22.43 50 50 50h15c5.522 0 10-4.477 10-10s-4.478-10-10-10h-15c-13.036 0-24.152-8.361-28.28-20h5.02c14.417 0 28.569-6.75 38.832-18.523 8.626-9.907 25.438-21.477 44.428-21.477s35.802 11.569 44.432 21.481c10.259 11.769 24.411 18.519 38.828 18.519h5.02c-4.128 11.639-15.243 20-28.28 20h-15c-5.522 0-10 4.477-10 10s4.478 10 10 10h15c27.57 0 50-22.43 50-50v-100c0-27.57-22.429-50-50-50zm-110 60c22.056 0 40 17.944 40 40-22.055 0-40-17.944-40-40zm60 40c0-22.056 17.944-40 40-40 0 22.056-17.944 40-40 40zm80 40h-6.74c-8.762 0-17.197-4.141-23.748-11.657-4.944-5.677-11.603-11.513-19.53-16.405 17.925-10.388 30.018-29.771 30.018-51.938v-10c0-5.523-4.478-10-10-10h-10c-20.85 0-39.243 10.696-50 26.884-10.757-16.188-29.15-26.884-50-26.884h-10c-5.522 0-10 4.477-10 10v10c0 22.167 12.092 41.55 30.018 51.938-7.926 4.891-14.584 10.726-19.526 16.401-6.554 7.52-14.99 11.661-23.752 11.661h-6.74v-90c0-16.542 13.458-30 30-30h120c16.542 0 30 13.458 30 30z"/><circle cx="170.198" cy="442" r="10"/></g></svg>