<svg width="287" height="287" viewBox="0 0 287 287" fill="none" xmlns="http://www.w3.org/2000/svg">
<g clip-path="url(#clip0)">
<path d="M143.027 0C64.031 0 0 64.04 0 143.027C0 222.023 64.031 286.054 143.027 286.054C222.023 286.054 286.054 222.023 286.054 143.027C286.054 64.04 222.022 0 143.027 0ZM143.027 259.236C78.844 259.236 26.818 207.21 26.818 143.027C26.818 78.844 78.844 26.818 143.027 26.818C207.21 26.818 259.236 78.844 259.236 143.027C259.236 207.21 207.21 259.236 143.027 259.236ZM173.232 180.205H141.194C156.855 161.746 182.046 140.452 182.046 116.469C182.046 94.559 165.482 80.587 142.83 80.587C120.169 80.587 98.983 98.564 98.983 120.304C98.983 127.035 103.587 132.89 112.428 132.89C130.119 132.89 120.536 104.392 141.722 104.392C149.276 104.392 154.988 110.596 154.988 117.676C154.988 123.88 151.85 129.234 148.534 133.722C134.535 152.691 117.953 168.218 102.667 185.301C100.826 187.366 98.421 190.477 98.421 194.097C98.421 202.035 104.687 205.477 112.786 205.477H174.314C181.313 205.477 187.58 200.909 187.58 192.98C187.58 185.05 181.331 180.205 173.232 180.205Z" fill="#4DC4B1"/>
</g>
<defs>
<clipPath id="clip0">
<rect width="286.054" height="286.054" fill="white"/>
</clipPath>
</defs>
</svg>
