<svg width="287" height="287" viewBox="0 0 287 287" fill="none" xmlns="http://www.w3.org/2000/svg">
<g clip-path="url(#clip0)">
<path d="M143.027 0C64.04 0 0 64.04 0 143.027C0 222.023 64.04 286.054 143.027 286.054C222.014 286.054 286.054 222.023 286.054 143.027C286.054 64.04 222.014 0 143.027 0ZM143.027 259.236C78.844 259.236 26.818 207.21 26.818 143.027C26.818 78.844 78.844 26.818 143.027 26.818C207.21 26.818 259.236 78.844 259.236 143.027C259.236 207.21 207.21 259.236 143.027 259.236ZM167.717 137.637C176.683 131.701 181.081 122.36 181.081 111.66C181.081 98.421 169.827 80.578 146.352 80.578C128.259 80.578 110.81 94.854 110.81 108.093C110.81 114.377 114.725 120.653 121.412 120.653C132.497 120.653 130.378 104.017 145.861 104.017C153.2 104.017 157.598 108.942 157.598 115.388C157.598 134.241 134.446 122.182 134.446 140.015C134.446 160.048 162.166 142.563 162.166 166.332C162.166 175.334 155.31 182.128 146.835 182.128C128.411 182.128 131.022 162.256 119.937 162.256C114.064 162.256 107.386 167.012 107.386 173.636C107.386 187.054 122.386 205.558 146.513 205.558C169.665 205.558 187.597 188.404 187.597 168.031C187.598 154.621 179.445 143.25 167.717 137.637Z" fill="#4DC4B1"/>
</g>
<defs>
<clipPath id="clip0">
<rect width="286.054" height="286.054" fill="white"/>
</clipPath>
</defs>
</svg>
