<svg width="287" height="287" viewBox="0 0 287 287" fill="none" xmlns="http://www.w3.org/2000/svg">
<g clip-path="url(#clip0)">
<path d="M143.027 0C64.031 0 0 64.04 0 143.027C0 222.023 64.031 286.054 143.027 286.054C222.023 286.054 286.054 222.023 286.054 143.027C286.054 64.04 222.022 0 143.027 0ZM143.027 259.236C78.844 259.236 26.818 207.21 26.818 143.027C26.818 78.844 78.844 26.818 143.027 26.818C207.21 26.818 259.236 78.844 259.236 143.027C259.236 207.21 207.21 259.236 143.027 259.236Z" fill="#4DC4B1"/>
<path d="M150.026 80.39H127.186C120.276 80.39 116.253 87.434 116.253 93.548C116.253 99.484 119.462 106.706 127.186 106.706H134.445V192.066C134.445 200.8 140.702 205.671 147.621 205.671C154.54 205.671 160.806 200.79 160.806 192.066V92.771C160.798 85.789 156.945 80.39 150.026 80.39Z" fill="#4DC4B1"/>
</g>
<defs>
<clipPath id="clip0">
<rect width="286.054" height="286.054" fill="white"/>
</clipPath>
</defs>
</svg>
