<svg id="Capa_1" enable-background="new 0 0 512 512" height="512" viewBox="0 0 512 512" width="512" xmlns="http://www.w3.org/2000/svg"><g><g><g><g><g><g><path d="m7.5 61.352h48.014v104.068h-48.014z" fill="#d88459"/></g><g><path d="m207.986 61.352h48.014v104.068h-48.014z" fill="#d88459"/></g><g><path d="m408.472 61.352h48.014v104.068h-48.014z" fill="#d88459"/></g></g></g><g><g><path d="m456.486 184.693h-438.804c-5.623 0-10.182-4.559-10.182-10.182v-28.364h448.986z" fill="#e5a988"/></g><g><path d="m456.486 80.625h-448.986v-28.363c0-5.623 4.559-10.182 10.182-10.182h428.622c5.623 0 10.182 4.559 10.182 10.182z" fill="#e5a988"/></g></g><g><g><path d="m391.152 146.148h65.333v38.545h-65.333z" fill="#dd9674"/></g><g><path d="m446.304 42.08h-55.151v38.545h65.333v-28.364c0-5.623-4.559-10.181-10.182-10.181z" fill="#dd9674"/></g></g></g><g><g><g><g><path d="m7.5 346.579h48.014v104.068h-48.014z" fill="#d88459"/></g><g><path d="m207.986 346.579h48.014v104.068h-48.014z" fill="#d88459"/></g><g><path d="m408.472 346.579h48.014v104.068h-48.014z" fill="#d88459"/></g></g></g><g><g><path d="m446.304 469.92h-428.622c-5.623 0-10.182-4.559-10.182-10.182v-28.364h448.986v28.364c0 5.624-4.559 10.182-10.182 10.182z" fill="#e5a988"/></g><g><path d="m456.486 365.852h-448.986v-28.364c0-5.623 4.559-10.182 10.182-10.182h438.804z" fill="#e5a988"/></g></g><g><g><path d="m391.152 431.375v38.545h55.151c5.623 0 10.182-4.558 10.182-10.182v-28.364h-65.333z" fill="#dd9674"/></g><g><path d="m391.152 327.307h65.333v38.545h-65.333z" fill="#dd9674"/></g></g></g><g><g><g><g><path d="m55.514 203.966h48.014v104.068h-48.014z" fill="#c26e37"/></g><g><path d="m256 203.966h48.014v104.068h-48.014z" fill="#c26e37"/></g><g><path d="m456.486 203.966h48.014v104.068h-48.014z" fill="#c26e37"/></g></g></g><g><g><path d="m494.318 327.307h-438.804v-38.545h448.986v28.364c0 5.622-4.559 10.181-10.182 10.181z" fill="#dd9674"/></g><g><path d="m504.5 223.239h-448.986v-38.545h438.804c5.623 0 10.182 4.559 10.182 10.182z" fill="#dd9674"/></g></g><g><g><path d="m439.167 288.761v38.545h55.151c5.623 0 10.182-4.558 10.182-10.182v-28.364h-65.333z" fill="#d88459"/></g><g><path d="m494.318 184.693h-55.151v38.545h65.333v-28.364c0-5.622-4.559-10.181-10.182-10.181z" fill="#d88459"/></g></g></g></g><path d="m494.318 177.193h-30.333c0-173.324.002 76.779 0-124.932 0-9.75-7.932-17.682-17.682-17.682h-428.621c-9.75.001-17.682 7.933-17.682 17.683v122.25c0 9.75 7.932 17.682 17.682 17.682h30.333v31.026c0 .006-.001.013-.001.019v65.522c0 .007.001.013.001.019v31.026h-30.333c-9.75.001-17.682 7.933-17.682 17.683v122.25c0 9.75 7.932 17.682 17.682 17.682h428.622c9.75 0 17.682-7.932 17.682-17.682 0-15.803.001-30.498 0-124.932h30.333c9.75 0 17.682-7.932 17.682-17.682 0-13.422 0-108.814 0-122.25-.001-9.75-7.933-17.682-17.683-17.682zm-182.804 104.068v-50.522h137.473v50.522zm-48.014 0v-50.522h33.014v50.522zm-152.472 0v-50.522h137.472v50.522zm-48.014 0v-50.522h33.015v50.522zm400.972-50.522h33.014v50.522h-33.014zm-200.486-92.091v-50.523h137.472v50.523zm-48.014 0v-50.523h33.014v50.523zm200.486-50.523h33.015v50.523h-33.015zm-400.972-35.863c0-1.479 1.203-2.682 2.682-2.682h428.622c1.479 0 2.682 1.203 2.682 2.682v20.863h-300.675c-4.143 0-7.5 3.358-7.5 7.5s3.357 7.5 7.5 7.5h52.176v50.523h-137.473v-50.523h50.234c4.143 0 7.5-3.358 7.5-7.5s-3.357-7.5-7.5-7.5h-98.248zm0 86.386v-50.523h33.014v50.523zm0 35.863v-20.863h433.985v23.545h-393.47-37.833c-1.479 0-2.682-1.203-2.682-2.682zm479.318 17.682c1.479 0 2.682 1.203 2.682 2.682v20.864h-433.985v-23.545h431.303zm-293.832 181.159v50.523h-137.472v-50.523zm48.014 0v50.523h-33.014v-50.523zm-200.486 50.523h-33.014v-50.523h33.014zm400.971 35.863c0 1.479-1.203 2.682-2.682 2.682h-428.621c-1.479 0-2.682-1.203-2.682-2.682v-20.863h433.985zm.001-86.386v50.523h-33.015v-50.523zm-.001-15h-96.572c-4.143 0-7.5 3.358-7.5 7.5s3.357 7.5 7.5 7.5h48.559v50.523h-137.472v-50.523h53.851c4.143 0 7.5-3.358 7.5-7.5s-3.357-7.5-7.5-7.5h-302.351v-20.863c0-1.479 1.203-2.682 2.682-2.682h431.304v23.545zm48.015-41.227c0 1.479-1.203 2.682-2.682 2.682h-37.833-393.47v-23.545h433.985z"/></g></svg>