<svg id="Capa_1" enable-background="new 0 0 512 512" height="512" viewBox="0 0 512 512" width="512" xmlns="http://www.w3.org/2000/svg"><g><path d="m458.069 0h-58.233c-28.353 0-55.578 10.42-76.66 29.342-3.083 2.767-3.338 7.509-.572 10.591s7.509 3.339 10.591.572c18.325-16.447 41.992-25.505 66.64-25.505h54.07v3.641c0 55.035-44.774 99.809-99.808 99.809h-37.817l69.292-48.601c3.391-2.378 4.212-7.056 1.833-10.447-2.378-3.392-7.056-4.211-10.447-1.833l-76.877 53.921c.532-16.014 4.908-31.715 12.737-45.607 2.034-3.608.757-8.183-2.852-10.216-3.608-2.035-8.183-.756-10.216 2.852-9.633 17.093-14.725 36.558-14.725 56.29v7.386c-33.025 25.291-52.58 64.685-52.58 106.487v1.132c-3.305-4.235-7.106-8.114-11.355-11.541v-7.047c0-61.244-49.826-111.07-111.07-111.07h-11.043c-4.142 0-7.5 3.358-7.5 7.5s3.358 7.5 7.5 7.5h11.042c51.728 0 94.039 41.095 95.999 92.353l-73.77-51.742c-3.392-2.377-8.067-1.559-10.447 1.833-2.378 3.391-1.558 8.068 1.833 10.447l66.201 46.433h-35.672c-52.973 0-96.07-43.097-96.07-96.07v-3.253h5.883c4.142 0 7.5-3.358 7.5-7.5s-3.358-7.5-7.5-7.5h-10.045c-5.976 0-10.837 4.861-10.837 10.837v7.417c0 61.245 49.826 111.07 111.07 111.07h56.919c13.429 10.533 21.361 26.728 21.361 43.899v78.958c-3.104-3.747-6.645-7.166-10.579-10.173v-2.108c0-35.687-29.033-64.72-64.72-64.72h-29.494c-5.976 0-10.837 4.861-10.837 10.837v2.604c0 35.687 29.033 64.72 64.72 64.72h30.443c12.836 9.423 20.467 24.45 20.467 40.415v53.015c-8.714 1.126-17.047 4.21-24.435 9.085-1.997 1.317-4.454 1.867-6.916 1.549-2.017-.261-4.076-.393-6.119-.393-12.421 0-24.158 4.775-33.048 13.447-8.874 8.655-13.94 20.237-14.268 32.613-.061 2.288.822 4.541 2.421 6.183 1.603 1.646 3.839 2.59 6.135 2.59h92.268c4.142 0 7.5-3.358 7.5-7.5s-3.358-7.5-7.5-7.5h-84.982c3.347-14.354 16.099-24.833 31.475-24.833 1.403 0 2.814.09 4.195.269 6.027.779 12.101-.607 17.101-3.904 7.027-4.637 15.213-7.087 23.674-7.087 11.736 0 22.704 4.637 30.884 13.058 5.545 5.708 13.484 8.511 21.233 7.501.975-.127 1.975-.192 2.972-.192 9.94 0 18.358 6.29 21.437 15.188h-32.988c-4.142 0-7.5 3.358-7.5 7.5s3.358 7.5 7.5 7.5h40.665c2.31 0 4.555-.953 6.16-2.615 1.6-1.657 2.472-3.924 2.392-6.224-.714-20.383-17.259-36.35-37.666-36.35-1.644 0-3.297.107-4.913.318-3.08.401-6.269-.749-8.533-3.079-9.266-9.538-21.185-15.475-34.143-17.13v-128.815c0-15.562 7.606-30.188 20.347-39.125l1.544-1.083h40.109c44.957 0 81.532-36.575 81.532-81.532v-4.349c0-5.976-4.861-10.837-10.837-10.837h-39.14c-44.957 0-81.531 36.575-81.531 81.532v3.786l-.29.203c-4.396 3.083-8.327 6.683-11.734 10.685v-48.704c0-37.489 17.708-72.797 47.563-95.232h59.09c63.305 0 114.808-51.503 114.808-114.809v-7.804c0-5.977-4.862-10.838-10.837-10.838zm-326.23 290.335h25.307c24.321 0 44.62 17.555 48.892 40.659l-34.684-24.327c-3.391-2.377-8.068-1.559-10.447 1.833-2.378 3.391-1.558 8.068 1.833 10.447l27.872 19.549h-9.078c-26.893 0-48.868-21.464-49.695-48.161zm209.161-94.154h34.978v.186c0 36.686-29.846 66.532-66.532 66.532h-18.723l41.773-29.299c3.391-2.378 4.212-7.056 1.833-10.447-2.378-3.392-7.056-4.211-10.447-1.833l-49.049 34.402c3.505-33.412 31.842-59.541 66.167-59.541z"/></g></svg>