<svg height="512pt" viewBox="-72 0 511 512" width="512pt" xmlns="http://www.w3.org/2000/svg"><path d="m299.472656 427h-2.535156l-63.464844-22.074219c-31.597656-10.988281-66.40625-10.992187-98.003906 0l-63.464844 22.074219h-2.53125c-35.84375 0-65-29.160156-65-65 0-15.867188 5.78125-31.144531 16.28125-43.019531 7.222656-8.171875 7.03125-20.421875-.433594-27.886719l-.8125-.8125c-25.34375-25.339844-25.34375-66.578125 0-91.921875 9.8125-9.8125 22.011719-15.882813 34.78125-18.113281-13.304687-24.632813-9.5625-56.105469 11.21875-76.886719 14.539063-14.539063 34.488282-21.039063 53.964844-18.589844v-19.769531c0-35.839844 29.15625-65 65-65 35.839844 0 65 29.160156 65 65v19.769531c19.476563-2.449219 39.421875 4.050781 53.960938 18.589844 20.78125 20.785156 24.523437 52.253906 11.21875 76.886719 12.769531 2.230468 24.96875 8.300781 34.78125 18.113281 25.34375 25.34375 25.34375 66.582031 0 91.925781l-.8125.808594c-7.464844 7.46875-7.652344 19.714844-.433594 27.886719 10.5 11.875 16.285156 27.152343 16.285156 43.019531 0 35.839844-29.160156 65-65 65zm0 0" fill="#ffaa1f"/><path d="m348.191406 318.980469c-7.222656-8.171875-7.035156-20.417969.429688-27.886719l.8125-.808594c25.34375-25.34375 25.34375-66.582031 0-91.925781-9.8125-9.8125-22.011719-15.882813-34.78125-18.113281 13.304687-24.632813 9.566406-56.101563-11.21875-76.886719-14.539063-14.539063-34.484375-21.039063-53.960938-18.589844v-19.769531c0-35.839844-29.160156-65-65-65v396.683594c16.601563 0 33.203125 2.746094 49 8.242187l63.464844 22.074219h2.535156c35.839844 0 65-29.160156 65-65 0-15.867188-5.785156-31.144531-16.28125-43.019531zm0 0" fill="#ff9a00"/><g fill="#f78740"><path d="m184.472656 239.097656-55.050781-55.050781 21.214844-21.210937 33.835937 33.832031 33.832032-33.832031 21.214843 21.210937zm0 0"/><path d="m184.472656 327.097656-73.550781-73.550781 21.214844-21.210937 52.335937 52.332031 52.332032-52.332031 21.214843 21.210937zm0 0"/><path d="m184.472656 402.097656-39.488281-39.492187c-12.933594-12.929688-33.976563-12.929688-46.90625 0l-21.214844-21.210938c24.628907-24.628906 64.703125-24.628906 89.332031 0l18.277344 18.273438 18.273438-18.273438c24.628906-24.628906 64.699218-24.628906 89.332031 0l-21.214844 21.214844c-12.929687-12.933594-33.972656-12.933594-46.902343 0zm0 0"/></g><path d="m189.78125 396.78125 34.179688-34.175781c12.929687-12.929688 33.972656-12.929688 46.902343 0l21.214844-21.210938c-24.632813-24.628906-64.703125-24.628906-89.332031 0l-18.273438 18.273438v37.015625c1.769532 0 3.539063.039062 5.308594.097656zm0 0" fill="#fd4c0c"/><path d="m258.019531 253.546875-21.214843-21.210937-52.332032 52.332031v42.429687zm0 0" fill="#fd4c0c"/><path d="m239.519531 184.046875-21.214843-21.210937-33.832032 33.832031v42.429687zm0 0" fill="#fd4c0c"/><path d="m169.472656 145h30v367h-30zm0 0" fill="#f78740"/><path d="m184.472656 145h15v367h-15zm0 0" fill="#fd4c0c"/></svg>