<svg id="Layer_1" enable-background="new 0 0 511.896 511.896" height="512" viewBox="0 0 511.896 511.896" width="512" xmlns="http://www.w3.org/2000/svg"><g id="XMLID_1685_"><g id="XMLID_1060_"><path id="XMLID_1084_" d="m511.442 226.015c-1.995-18.62-12.169-35.113-27.915-45.25l-25.879-16.66-27.367-106.218c-3.44-13.354-10.413-25.566-20.165-35.318-30.092-30.091-79.055-30.092-109.148 0l-144.819 144.82c-3.328 3.328-3.885 8.526-1.337 12.484l47.654 74.023h-65.113l-21.161-21.161c-6.237-6.237-15.533-8.084-23.681-4.71-7.638 3.164-12.742 10.285-13.352 18.429-44.414 4.958-79.062 42.726-79.062 88.442v167c0 5.523 4.477 10 10 10s10-4.477 10-10v-167c0-34.65 25.676-63.406 59-68.266v51.399c-16.674 4.427-29 19.646-29 37.695v146.172c0 5.523 4.477 10 10 10s10-4.477 10-10v-146.172c0-8.065 5.06-14.956 12.166-17.708 2.344 3.855 5.875 6.971 10.248 8.783 2.705 1.12 5.534 1.665 8.338 1.665 5.643 0 11.176-2.208 15.343-6.375l19.561-19.562 133.867 35.684 14.28 22.181c10.137 15.746 26.63 25.921 45.25 27.916 2.225.238 4.444.356 6.652.356 16.263 0 31.825-6.395 43.484-18.054l25.409-25.409c3.905-3.905 3.905-10.237 0-14.143-3.905-3.905-10.237-3.905-14.143 0l-25.409 25.41c-8.945 8.944-21.292 13.297-33.864 11.954-12.577-1.347-23.717-8.22-30.564-18.855l-84.493-131.248 125.175-125.264 131.302 84.528c10.636 6.847 17.508 17.987 18.855 30.563s-3.01 24.92-11.954 33.864l-25.409 25.409c-3.905 3.905-3.905 10.237 0 14.143s10.237 3.905 14.143 0l25.408-25.409c13.244-13.243 19.695-31.517 17.7-50.138zm-196.331-189.304c22.295-22.294 58.57-22.294 80.864 0 7.225 7.224 12.39 16.272 14.939 26.166l21.975 85.289-29.712-19.128-15.503-60.174c-1.479-5.74-4.477-10.99-8.669-15.184-6.267-6.266-14.598-9.717-23.46-9.717s-17.194 3.451-23.46 9.717l-18.001 18.001-20.648-13.293zm16.178 46.048 14.936-14.936c2.489-2.489 5.798-3.86 9.318-3.86 3.521 0 6.83 1.371 9.318 3.858 1.666 1.667 2.857 3.752 3.445 6.032l10.111 39.245zm-208.132 224.08-21.107 21.107c-.224.224-.818.815-1.885.375-1.067-.442-1.067-1.282-1.067-1.598v-78.623c0-.316 0-1.155 1.067-1.597.276-.115.521-.16.736-.16.614 0 .983.369 1.148.535l21.107 21.107v38.854zm20-3.037v-29.906h72.185l38.194 59.328zm61.99-82.69-29.153-45.285 102.968-102.968 45.284 29.153z"/><path id="XMLID_1105_" d="m429.447 316.31c-2.64 0-5.21 1.07-7.07 2.93-1.87 1.86-2.93 4.44-2.93 7.07s1.06 5.21 2.93 7.07c1.86 1.86 4.44 2.93 7.07 2.93s5.21-1.07 7.07-2.93 2.93-4.44 2.93-7.07-1.07-5.21-2.93-7.07-4.44-2.93-7.07-2.93z"/></g></g></svg>