<svg id="Capa_1" enable-background="new 0 0 512.008 512.008" height="512" viewBox="0 0 512.008 512.008" width="512" xmlns="http://www.w3.org/2000/svg"><g><path d="m203.142 422.113c-13.821-15.687-32.272-25.887-52.642-29.255v-31.478h15.125c41.493 0 75.25-33.757 75.25-75.25v-15h-45.125c-19.145 0-36.633 7.198-49.927 19.015-10.638-28.66-38.256-49.14-70.573-49.14h-45.125v15c0 41.493 33.757 75.25 75.25 75.25h15.125v61.602c-20.369 3.369-38.82 13.568-52.642 29.255-38.036 3.727-67.858 35.892-67.858 74.89v15l512 .001v-30h-242.502c-6.491-31.978-33.327-56.654-66.356-59.89zm-7.392-120.983h12.57c-6.202 17.601-23 30.25-42.695 30.25h-12.57c6.202-17.6 23-30.25 42.695-30.25zm-90.375.125c-19.695 0-36.493-12.649-42.695-30.25h12.57c19.695 0 36.493 12.649 42.695 30.25zm-72.82 180.747c6.579-20.213 28.449-32.452 50.205-30.25 11.316-17.752 30.997-30.411 52.74-30.126 21.353-.447 41.141 12.147 52.74 30.126 23.263-2.04 42.967 10.091 50.205 30.25z"/><path d="m201.26 210.73-15.021-25.968c-23.201 13.421-37.613 38.394-37.613 65.173h30c-.001-16.106 8.672-31.128 22.634-39.205z"/><path d="m326.063 249.186c13.203 19.599 44.984 23.218 62.16 5.145l96.025-96.025c16.188-15.431 15.888-44.964-2.297-59.911l19.306-19.306c6.929-6.929 10.743-16.14 10.743-25.937.417-18.826-16.477-37.075-36.679-36.679h-107.76l-23.057-16.469-46.728 46.728-31.17-31.17-21.213 21.213 31.17 31.17-46.643 46.643 26.446 37.024-45.491 2.806v80.527l109.444 6.2zm149.258-202.713c5.117 0 9.841 5.551 4.723 11.402l-22.717 22.717-47.767-34.12zm-177.544 42.685 37.165 37.165 21.213-21.213-37.165-37.165 28.757-28.757 113.919 81.372c6.161 6.194 5.819 10.525 1.368 16.533l-96.025 96.025c-6.009 4.451-10.339 4.793-16.534-1.369l-81.371-113.919zm-56.902 117.439v-23.973l36.055-2.224 21.021 29.43z"/></g></svg>